<svg
  width="95"
  height="98"
  viewBox="0 0 95 98"
  fill="none"
  xmlns="http://www.w3.org/2000/svg"
>
<path
    d="M47.2057 5.77845C41.2538 6.35157 36.7725 11.651 37.3451 17.6037L40.2923 48.2128L30.1991 53.0263C26.7536 47.1584 19.3317 44.8025 13.0753 47.7871C6.46921 50.9393 3.66864 58.8474 6.81895 65.4544C9.97045 72.06 17.8795 74.8624 24.4872 71.711C29.021 69.5483 31.7613 65.1436 32.0163 60.4588L44.3775 54.5625L45.6896 68.1937C41.8062 70.8255 39.4421 75.4428 39.9224 80.4426C40.6245 87.7294 47.0993 93.0651 54.3843 92.3644C61.671 91.6624 67.0076 85.1881 66.3067 77.9029C65.6423 71.0036 59.8003 65.8555 52.9963 65.9234L51.924 54.7927L79.6777 41.5544C85.076 38.9799 87.3096 32.4089 84.7353 27.0118L50.808 43.1964L47.2057 5.77845ZM24.8006 63.121C22.9322 66.4234 18.7402 67.586 15.4378 65.7176C12.1354 63.8492 10.9729 59.657 12.8413 56.3548C14.7101 53.0516 18.9017 51.8898 22.2041 53.7582C25.5065 55.6266 26.6695 59.8179 24.8006 63.121ZM59.0841 82.5177C57.2157 85.8201 53.0237 86.9827 49.7213 85.1143C46.4189 83.2459 45.2564 79.0538 47.1248 75.7514C48.9936 72.4483 53.1852 71.2865 56.4876 73.1549C59.7898 75.0232 60.953 79.2146 59.0841 82.5177Z"
  />
</svg>
